<svg id="Layer_1" data-name="Layer 1" xmlns="http://www.w3.org/2000/svg" viewBox="0 0 149.41 44"><defs><style>.cls-1{fill:#fff;}</style></defs><title>Artboard 1</title><path class="cls-1" d="M18.15,39.94Q14,44,9.17,44a9.21,9.21,0,0,1-6.63-2.48A8.6,8.6,0,0,1,0,35.08a9.06,9.06,0,0,1,4.12-7.95q4.11-2.79,11.78-2.8h2.22V21.5q0-4.83-5.5-4.83A20.66,20.66,0,0,0,2.7,19.44V13.68A31.36,31.36,0,0,1,14,11.52q12.21,0,12.2,9.69V35c0,2.44.77,3.63,2.35,3.63a5,5,0,0,0,1.09-.13l.2,4.7a17.16,17.16,0,0,1-4.7.81c-3.45,0-5.64-1.35-6.63-4.06h-.33Zm0-4.5V29.13h-2c-5.41,0-8.11,1.71-8.11,5.09a4,4,0,0,0,4,4.05C14.1,38.3,16.09,37.34,18.15,35.44Z"/><path class="cls-1" d="M37.08,43.29V12.23h8.37v5.86c2.15-4.38,5.47-6.57,9.91-6.57a8.76,8.76,0,0,1,1.55.16v7.47a10,10,0,0,0-3.32-.64c-3.35,0-6.05,1.67-8.14,5V43.29Z"/><path class="cls-1" d="M58,43.29,71.42,22.66,58.61,1.42H68.78l8.53,14.09L86.55,1.42h7L80.76,21.15,94.05,43.26H83.91l-9.07-15-9.73,15H58Z"/><path class="cls-1" d="M101.55,7V0h8.37V7Zm0,36.31V12.23h8.37V43.29Z"/><path class="cls-1" d="M129.07,43.29,117.23,12.23h8.82l8.69,22.4,8.62-22.4h6l-12,31.06Z"/></svg>