<?xml version="1.0" encoding="UTF-8" standalone="no"?>
<svg width="174px" height="173px" viewBox="0 0 174 173" version="1.1" xmlns="http://www.w3.org/2000/svg" xmlns:xlink="http://www.w3.org/1999/xlink">
    <!-- Generator: Sketch 49 (51002) - http://www.bohemiancoding.com/sketch -->
    <title>Smileybones</title>
    <desc>Created with Sketch.</desc>
    <defs></defs>
    <g id="Smileybones" stroke="none" stroke-width="1" fill="none" fill-rule="evenodd">
        <g id="Group" transform="translate(2.000000, 2.000000)" fill="#A4A4A4" stroke="#5B5A5A">
            <path d="M17.1503906,14.1699219 C19.0904948,12.9954427 20.8645833,10.4466146 22.4726562,6.5234375 C24.8847656,0.638671875 28.8300781,-0.42578125 32.4355469,2.02734375 C36.0410156,4.48046875 39.0429688,7.41796875 35.4375,14.1699219 C31.8320312,20.921875 31.8320312,21.9960938 35.4375,25.9492188 C37.8411458,28.5846354 40.2239583,31.2200521 42.5859375,33.8554688 L143.589844,137.402344 C147.77474,140.41276 150.707031,142.258464 152.386719,142.939453 C154.90625,143.960938 168.177734,138.445313 169.566406,143.960938 C170.955078,149.476563 172.806641,157.445313 168.177734,157.445313 C163.548828,157.445313 160.269531,160.009766 158.380859,160.009766 C157.121745,160.009766 155.123698,161.429036 152.386719,164.267578 L17.1503906,14.1699219 Z" id="Path-4"></path>
            <path d="M162.507812,159.419922 C161.35026,162.402995 160.039714,164.748698 158.576172,166.457031 C156.380859,169.019531 153.060547,171.582031 150.517578,169.019531 C147.974609,166.457031 142.958984,165.978516 143.480469,159.419922 C143.828125,155.047526 103.615234,113.352214 22.8417969,34.3339844 C19.0201823,32.6386719 15.9798177,32.6386719 13.7207031,34.3339844 C10.3320312,36.8769531 9.70507812,34.3320313 5.20898437,30.2929688 C0.712890625,26.2539063 -1.00585938,22.0644531 2.94726562,19.4804688 C6.90039062,16.8964844 12.4609375,11.9707031 15.7382812,11.9707031 C17.9231771,11.9707031 20.2910156,13.7688802 22.8417969,17.3652344" id="Path-5"></path>
        </g>
        <g id="Group-Copy" transform="translate(86.000000, 85.500000) scale(-1, 1) rotate(180.000000) translate(-86.000000, -85.500000) " fill="#A4A4A4" stroke="#5B5A5A">
            <path d="M17.1503906,14.1699219 C19.0904948,12.9954427 20.8645833,10.4466146 22.4726562,6.5234375 C24.8847656,0.638671875 28.8300781,-0.42578125 32.4355469,2.02734375 C36.0410156,4.48046875 39.0429688,7.41796875 35.4375,14.1699219 C31.8320312,20.921875 31.8320312,21.9960938 35.4375,25.9492188 C37.8411458,28.5846354 40.2239583,31.2200521 42.5859375,33.8554688 L143.589844,137.402344 C147.77474,140.41276 150.707031,142.258464 152.386719,142.939453 C154.90625,143.960938 168.177734,138.445313 169.566406,143.960938 C170.955078,149.476563 172.806641,157.445313 168.177734,157.445313 C163.548828,157.445313 160.269531,160.009766 158.380859,160.009766 C157.121745,160.009766 155.123698,161.429036 152.386719,164.267578 L17.1503906,14.1699219 Z" id="Path-4"></path>
            <path d="M162.507812,159.419922 C161.35026,162.402995 160.039714,164.748698 158.576172,166.457031 C156.380859,169.019531 153.060547,171.582031 150.517578,169.019531 C147.974609,166.457031 142.958984,165.978516 143.480469,159.419922 C143.828125,155.047526 103.615234,113.352214 22.8417969,34.3339844 C19.0201823,32.6386719 15.9798177,32.6386719 13.7207031,34.3339844 C10.3320312,36.8769531 9.70507812,34.3320313 5.20898437,30.2929688 C0.712890625,26.2539063 -1.00585938,22.0644531 2.94726562,19.4804688 C6.90039062,16.8964844 12.4609375,11.9707031 15.7382812,11.9707031 C17.9231771,11.9707031 20.2910156,13.7688802 22.8417969,17.3652344" id="Path-5"></path>
        </g>
        <circle id="Oval" stroke="#000000" stroke-width="5" fill="#F9F900" cx="86" cy="84" r="60"></circle>
        <ellipse id="Oval-2" fill="#010101" cx="69.5" cy="66.5" rx="5.5" ry="13.5"></ellipse>
        <ellipse id="Oval-2-Copy" fill="#010101" cx="103.5" cy="66.5" rx="5.5" ry="13.5"></ellipse>
        <path d="M45,100.964174 C48.4924797,100.964174 53.6155739,101.471064 55.5070867,98.6715562 C57.3985994,95.8720479 57.5942732,92.8964821 55.5070867,89" id="Path-2" stroke="#000000" stroke-width="3"></path>
        <path d="M116,100.964174 C119.49248,100.964174 124.615574,101.471064 126.507087,98.6715562 C128.398599,95.8720479 128.594273,92.8964821 126.507087,89" id="Path-2-Copy" stroke="#000000" stroke-width="3" transform="translate(122.000000, 95.000000) scale(-1, 1) translate(-122.000000, -95.000000) "></path>
        <path d="M56,100 C58.488812,106.001279 63.0657503,110.643203 69.7308148,113.925773 C79.7284117,118.849627 99.1587363,117.108409 104.289468,113.925773 C107.709955,111.804015 111.9468,107.162091 117,100" id="Path-3" stroke="#000000" stroke-width="4"></path>
    </g>
</svg>