<svg xmlns="http://www.w3.org/2000/svg" viewBox="0 0 612.02 639"><title>smileybones-error-large</title><path d="M324,621v27H297V621Zm-54,27v27h27V648Zm-27,27v27h27V675Zm396-54v27H612V621Zm0,27v27h27V648Zm27,27v27h27V675ZM639,261h27v27H639Zm27,0h27V234H666Zm27-27h27V207H693ZM297,279H270V252h27Zm-27-54H243v27h27Zm-27-27H216v27h27Z" transform="translate(-162 -117)"/><path d="M243,675v27H216V675Zm477,0v27H693V675ZM693,180h27v27H693ZM243,198H216V171h27Zm477,9h27v27H720ZM666,702h27v27H666Zm-423,0h27v27H243ZM189,198h27v27H189Z" transform="translate(-162 -117)" style="fill:#666"/><path d="M216,675v27H189V675Zm54,54v27H243V729Zm0-108v27h27V621Zm-27,27v27h27V648Zm-81,0v27h27V648Zm585,27v27H720V675ZM639,621v27h27V621Zm27,27v27h27V648Zm81,0v27h27V648ZM693,153h27v27H693ZM639,261h27V234H639Zm27-27h27V207H666Zm0-81h27V126H666ZM243,171H216V144h27Zm54,54H270v27h27Zm-27-27H243v27h27Zm0-81H243v27h27ZM693,729v27H666V729Zm81-522v27H747V207Zm-585-9v27H162V198Z" transform="translate(-162 -117)" style="fill:#999"/><path d="M243,729v27H216V729Zm-27-27v27h27V702Zm-27-54v27h27V648Zm27,0v27h27V648Zm0-27v27h27V621Zm27,0v27h27V621Zm0-27v27h27V594Zm27,0v27h27V594ZM162,675v27h27V675Zm558,54v27H693V729Zm-27-27v27h27V702Zm27-54v27h27V648Zm-27,0v27h27V648Zm0-27v27h27V621Zm-27,0v27h27V621Zm0-27v27h27V594Zm-27,0v27h27V594Zm108,81v27h27V675Zm0-495h27v27H747Zm-27,27h27V180H720Zm-54-27h27V153H666Zm0,27h27V180H666Zm-27,0h27V180H639Zm0,27h27V207H639Zm-27,0h27V207H612Zm0,27h27V234H612Zm81-108h27V126H693ZM189,198H162V171h27Zm27-27H189v27h27Zm54-27H243v27h27Zm0,27H243v27h27Zm27,0H270v27h27Zm0,27H270v27h27Zm27,0H297v27h27Zm0,27H297v27h27ZM243,117H216v27h27Z" transform="translate(-162 -117)" style="fill:#ccc"/><circle cx="306" cy="324" r="252" style="fill:#ff7545"/><circle cx="306" cy="324" r="252" style="fill:none;stroke:#000;stroke-miterlimit:10;stroke-width:20px"/><path d="M308.37,375.86c21.27-42.83,86.8-78.6,158.93-78.6,74,0,137.66,34.76,158.93,77.59" transform="translate(-162 -117)" style="fill:none;stroke:#000;stroke-miterlimit:10;stroke-width:15px"/><path d="M514.17,507c0-31.1,9.78-56.31,21.85-56.31s21.86,25.21,21.86,56.31-9.79,56.3-21.86,56.3S514.17,538.1,514.17,507Zm-117.36,56.3c12.07,0,21.86-25.21,21.86-56.3s-9.79-56.31-21.86-56.31S375,475.91,375,507,384.74,563.31,396.81,563.31ZM635.45,389.82c18.24-6.74,27.53-22.9,23.23-30.24s-14.78,5.47-33,12.2-37.32,4.86-33,12.2S617.21,396.56,635.45,389.82ZM342.08,384c4.3-7.34-14.78-5.46-33-12.2s-28.72-19.53-33-12.2,5,23.5,23.23,30.24S337.78,391.32,342.08,384Z" transform="translate(-162 -117)"/></svg>