<svg id="Text" xmlns="http://www.w3.org/2000/svg" viewBox="0 0 434.892 406.142"><g id="freight_text_black_ital" data-name="freight text black ital"><path d="M580.009,630.794C518.815,646.182,458.5,615.12,439.734,540.505c-20.112-79.981,12.118-169.7,88.342-188.866,61.193-15.387,121.244,16.884,140.006,91.5C687.924,522.043,657.305,611.358,580.009,630.794ZM538.481,377.68c-52.807,12.395-54.655,108.936-44.532,149.193s39.981,81.31,74.58,71.175c52.055-15.248,56.535-101.29,46.411-141.55S574.824,369.149,538.481,377.68Z" transform="translate(-239.071 -300.008)"/><path d="M330.149,351.987c23.492-12.549,53.045,8.675,48.157,42.931-3.594,25.2-17.669,47.9-52.293,89.871l15.878,16.1c11.432-8.474,23.548-16.83,35.887-23.1,35.735-18.145,100.368-12.053,115.459,45.88.462,1.769.88,3.527,1.267,5.276,7.423,27.685,24.043,55.295,45,66,23.609-46.014,27.039-98.728,2.929-142.511-25.02-45.438-77.118-47.388-117.351-30.264a135.463,135.463,0,0,0-33.775,20.99l-1.517-3.563c35.268-37.268,40.03-65.246,32.53-90.745-15.355-52.207-75.694-62.415-108.2-31.344-17.565,16.788-26.328,51.353-29.588,80.97l14.944,15.659C304.209,390.973,308.178,363.722,330.149,351.987Z" transform="translate(-239.071 -300.008)" fill="#b31b1b"/><path d="M483.782,612.357c-32.9,60.26-116.282,83.787-162.885,37.835a1.975,1.975,0,0,0,.6-.725c.768-28.321-27.52-60.948-59.6-47.293-19.864,8.454-27.707,31.646-19.753,51.114,13.842,33.884,50.152,46.3,76.8,50.262,84.97,12.633,155.665-22.182,197.839-73.9A104.1,104.1,0,0,1,483.782,612.357Z" transform="translate(-239.071 -300.008)" fill="#b31b1b"/></g></svg>