<?xml version="1.0" encoding="utf-8"?>
<svg xmlns="http://www.w3.org/2000/svg" xmlns:xlink="http://www.w3.org/1999/xlink">
<!-- arXiv logo -->
<symbol viewBox="0 0 247 111.1" id="arxiv-logo" xmlns="http://www.w3.org/2000/svg">
  <path d="M69.4 32.9c1.9 0 3.1 1.2 4 3.4 1-2.2 2.6-3.4 4.7-3.4H93a4 4 0 014 4v7.9c0 2.6-1.3 4-4 4s-4.1-1.4-4.1-4V41H78.3a2.4 2.4 0 00-2.6 2.8V71h10c2.7 0 4 1.3 4 4s-1.3 4.1-4 4.1H59.3c-2.6 0-4-1.3-4-4s1.4-4.1 4-4.1h8.2V41h-7.2c-2.7 0-4-1.3-4-4s1.3-4.1 4-4.1zM181 32.9c2.7 0 4.1 1.4 4.1 4v34h10.1c2.8 0 4.1 1.4 4.1 4.1s-1.3 4.1-4 4.1h-28.7c-2.6 0-4-1.3-4-4s1.4-4.1 4-4.1H177V41h-8.5c-2.8 0-4.1-1.3-4.1-4s1.3-4.1 4-4.1zm4.3-17.6a5.9 5.9 0 11-5.8-5.9 5.9 5.9 0 015.8 5.9zM247 37a4.6 4.6 0 01-.3 1.6l-14.9 38a3.7 3.7 0 01-3.7 2.5h-6a3.7 3.7 0 01-3.7-2.5l-15-38a3.2 3.2 0 01-.4-1.6 4 4 0 014.1-4.1 3.8 3.8 0 013.7 2.6l14.4 36.2L239 35.5a3.8 3.8 0 013.7-2.6 4 4 0 014.2 4z" fill="#7c7469"/><path d="M128 55.6L95.2 94.5c-1.2 1.3-2 3.7-1.3 5.5a4.7 4.7 0 004.4 2.9 4.2 4.2 0 003.1-1.6l40.2-42.7a4.4 4.4 0 000-6z" fill="#aa142d"/><path d="M128 55.6l31.2-38.3c1.5-2 2.2-3 1.5-4.7a5.1 5.1 0 00-4.5-3.1 4 4 0 00-3 1l-38.7 41.8a4.8 4.8 0 000 6.6l47.8 51a4 4 0 003.2 1.2 4.4 4.4 0 004-2.8c.7-1.7 0-3.4-1.4-5.2L128 55.6" fill="#7c7469"/><path d="M141.7 52.6L95 2s-1.7-2-3.5-2A4.6 4.6 0 0087 2.7c-.7 1.7-.2 2.9 1.4 5l40 48.5" fill="#aa142d"/><path d="M32.4 32.9c5 0 8.3 3.3 8.3 8.4V79H5a4.8 4.8 0 01-5.1-5v-13a8.3 8.3 0 017-8l25.5-3.7V41H4.1A4 4 0 010 37c0-3 2.1-4.1 4.4-4.1zm.1 38V57.8L8.1 61V71z" fill="#7c7469"/>
</symbol>
<!-- Smileybones small-->
<symbol viewBox="0 0 630 639" id="smileybones-small" xmlns="http://www.w3.org/2000/svg">
  <path fill="#999" d="M135 54h-27V0H54v54H0v27h81v27h27v27h54V81h-27V54zM585 54h-27V0h-54v54h-27v27h-27v54h54v-27h27V81h81V54h-27zM81 477v27H54v27H0v54h54v54h27v-81h27v-27h27v-54H81zM558 531v-27h-27v-27h-54v54h27v27h27v81h27v-54h54v-54h-54z"/><path d="M108 135h27v27h-27zM81 108h27v27H81zM81 81H0v27h81V81zM477 135h27v27h-27zM504 108h27v27h-27zM585 81h-54v27h81V81h-27zM135 504h27v27h-27zM108 531h27v27h-27zM81 585v54h27v-81H81v27zM450 504h27v27h-27zM477 531h27v27h-27zM504 585v54h27v-81h-27v27z"/><circle cx="306" cy="324" r="252" fill="#ffe000"/><circle cx="306" cy="324" r="252" fill="none" stroke="#000" stroke-miterlimit="10" stroke-width="20"/><path d="M465.6 389.1c-21.2 42.9-86.8 78.6-158.9 78.6-74 0-137.7-34.7-159-77.6" fill="none" stroke="#000" stroke-miterlimit="10" stroke-width="15"/><path d="M259.8 258c0 31-9.8 56.3-21.8 56.3S216 289.1 216 258s9.8-56.3 21.9-56.3 21.8 25.2 21.8 56.3zm117.4-56.3c-12 0-21.9 25.2-21.9 56.3s9.8 56.3 21.9 56.3S399 289.1 399 258s-9.7-56.3-21.8-56.3zM138.6 375.2c-18.3 6.7-27.6 22.9-23.3 30.2s14.8-5.4 33-12.2 37.4-4.8 33-12.2-24.5-12.6-42.7-5.8zm293.3 5.8c-4.3 7.4 14.8 5.5 33 12.2s28.8 19.6 33 12.2-5-23.5-23.2-30.2-38.5-1.5-42.8 5.8z"/>
</symbol>
<!-- Smileybones large -->
<symbol viewBox="0 0 630 639" id="smileybones-error" xmlns="http://www.w3.org/2000/svg">
  <path d="M162 504v27h-27v-27zm-54 27v27h27v-27zm-27 27v27h27v-27zm414-54v27h-27v-27zm0 27v27h27v-27zm27 27v27h27v-27zm-36-423h27v27h-27zm27 0h27v-27h-27zm27-27h27V81h-27zm-396 54h-27v-27h27zm-27-54H90v27h27zM90 81H63v27h27z"/><path d="M81 558v27H54v-27zm495 0v27h-27v-27zM540 54h27v27h-27zM90 81H63V54h27zm477 0h27v27h-27zm-45 504h27v27h-27zm-441 0h27v27H81zM36 81h27v27H36z" fill="#666"/><path d="M54 558v27H27v-27zm54 54v27H81v-27zm0-108v27h27v-27zm-27 27v27h27v-27zm-81 0v27h27v-27zm603 27v27h-27v-27zm-108-54v27h27v-27zm27 27v27h27v-27zm81 0v27h27v-27zM540 27h27v27h-27zm-54 108h27v-27h-27zm27-27h27V81h-27zm0-81h27V0h-27zM90 54H63V27h27zm54 54h-27v27h27zm-27-27H90v27h27zm0-81H90v27h27zm432 612v27h-27v-27zm72.02-531v27h-27V81zM36 81v27H9V81z" fill="#999"/><path d="M81 612v27H54v-27zm-27-27v27h27v-27zm-27-54v27h27v-27zm27 0v27h27v-27zm0-27v27h27v-27zm27 0v27h27v-27zm0-27v27h27v-27zm27 0v27h27v-27zM0 558v27h27v-27zm549 54v27h27v-27zm0-27v27h27v-27zm27-54v27h27v-27zm-27 0v27h27v-27zm0-27v27h27v-27zm-27 0v27h27v-27zm0-27v27h27v-27zm-27 0v27h27v-27zm108 81v27h27v-27zm-9-477h27V54h-27zm-27 0h27V54h-27zm-54-27h27V27h-27zm0 27h27V54h-27zm-27 0h27V54h-27zm0 27h27V81h-27zm-27 0h27V81h-27zm0 27h27v-27h-27zm81-108h27V0h-27zM36 54H9v27h27zm27 0H36v27h27zm54-27H90v27h27zm0 27H90v27h27zm27 0h-27v27h27zm0 27h-27v27h27zm27 0h-27v27h27zm0 27h-27v27h27zM90 0H63v27h27z" fill="#ccc"/><circle cx="315" cy="324" r="252" fill="#fb595a" stroke="#000" stroke-miterlimit="10" stroke-width="20"/><path d="M155.37 258.86c21.26-42.83 86.8-78.6 158.93-78.6 73.98 0 137.66 34.76 158.93 77.6" fill="none" stroke="#000" stroke-miterlimit="10" stroke-width="15"/><path d="M361.17 390c0-31.1 9.78-56.3 21.85-56.3s21.86 25.21 21.86 56.3-9.79 56.31-21.86 56.31-21.85-25.21-21.85-56.3zM243.8 446.32c12.07 0 21.86-25.2 21.86-56.3s-9.79-56.31-21.86-56.31-21.85 25.2-21.85 56.3 9.78 56.31 21.85 56.31zm238.64-173.5c18.24-6.73 27.53-22.9 23.23-30.22s-14.78 5.46-33.02 12.2-37.32 4.85-33.02 12.2 24.57 12.56 42.8 5.83zm-293.37-5.83c4.3-7.34-14.78-5.46-33.02-12.2s-28.72-19.54-33.02-12.2 5 23.5 23.23 30.23 38.52 1.5 42.81-5.83z"/>
</symbol>
<!-- Smileybones error -->
<symbol viewBox="0 0 630 639" id="smileybones-error" xmlns="http://www.w3.org/2000/svg">
  <path d="M162 504v27h-27v-27zm-54 27v27h27v-27zm-27 27v27h27v-27zm414-54v27h-27v-27zm0 27v27h27v-27zm27 27v27h27v-27zm-36-423h27v27h-27zm27 0h27v-27h-27zm27-27h27V81h-27zm-396 54h-27v-27h27zm-27-54H90v27h27zM90 81H63v27h27z"/><path d="M81 558v27H54v-27zm495 0v27h-27v-27zM540 54h27v27h-27zM90 81H63V54h27zm477 0h27v27h-27zm-45 504h27v27h-27zm-441 0h27v27H81zM36 81h27v27H36z" fill="#666"/><path d="M54 558v27H27v-27zm54 54v27H81v-27zm0-108v27h27v-27zm-27 27v27h27v-27zm-81 0v27h27v-27zm603 27v27h-27v-27zm-108-54v27h27v-27zm27 27v27h27v-27zm81 0v27h27v-27zM540 27h27v27h-27zm-54 108h27v-27h-27zm27-27h27V81h-27zm0-81h27V0h-27zM90 54H63V27h27zm54 54h-27v27h27zm-27-27H90v27h27zm0-81H90v27h27zm432 612v27h-27v-27zm72.02-531v27h-27V81zM36 81v27H9V81z" fill="#999"/><path d="M81 612v27H54v-27zm-27-27v27h27v-27zm-27-54v27h27v-27zm27 0v27h27v-27zm0-27v27h27v-27zm27 0v27h27v-27zm0-27v27h27v-27zm27 0v27h27v-27zM0 558v27h27v-27zm549 54v27h27v-27zm0-27v27h27v-27zm27-54v27h27v-27zm-27 0v27h27v-27zm0-27v27h27v-27zm-27 0v27h27v-27zm0-27v27h27v-27zm-27 0v27h27v-27zm108 81v27h27v-27zm-9-477h27V54h-27zm-27 0h27V54h-27zm-54-27h27V27h-27zm0 27h27V54h-27zm-27 0h27V54h-27zm0 27h27V81h-27zm-27 0h27V81h-27zm0 27h27v-27h-27zm81-108h27V0h-27zM36 54H9v27h27zm27 0H36v27h27zm54-27H90v27h27zm0 27H90v27h27zm27 0h-27v27h27zm0 27h-27v27h27zm27 0h-27v27h27zm0 27h-27v27h27zM90 0H63v27h27z" fill="#ccc"/><circle cx="315" cy="324" r="252" fill="#fb595a" stroke="#000" stroke-miterlimit="10" stroke-width="20"/><path d="M155.37 258.86c21.26-42.83 86.8-78.6 158.93-78.6 73.98 0 137.66 34.76 158.93 77.6" fill="none" stroke="#000" stroke-miterlimit="10" stroke-width="15"/><path d="M361.17 390c0-31.1 9.78-56.3 21.85-56.3s21.86 25.21 21.86 56.3-9.79 56.31-21.86 56.31-21.85-25.21-21.85-56.3zM243.8 446.32c12.07 0 21.86-25.2 21.86-56.3s-9.79-56.31-21.86-56.31-21.85 25.2-21.85 56.3 9.78 56.31 21.85 56.31zm238.64-173.5c18.24-6.73 27.53-22.9 23.23-30.22s-14.78 5.46-33.02 12.2-37.32 4.85-33.02 12.2 24.57 12.56 42.8 5.83zm-293.37-5.83c4.3-7.34-14.78-5.46-33.02-12.2s-28.72-19.54-33.02-12.2 5 23.5 23.23 30.23 38.52 1.5 42.81-5.83z"/>
</symbol>
<!-- arXivLabs -->
<symbol viewBox="0 0 635.6 811" id="arxiv-labs" xmlns="http://www.w3.org/2000/svg">
  <path d="M175.6 676v27h-27v-27zm-54 27v27h27v-27zm-27 27v27h27v-27zm396-54v27h-27v-27zm0 27v27h27v-27zm27 27v27h27v-27zm-27-414h27v27h-27zm27 0h27v-27h-27zm27-27h27v-27h-27zm-396 45h-27v-27h27zm-27-54h-27v27h27zm-27-27h-27v27h27z"/><path d="M94.6 730v27h-27v-27zm477 0v27h-27v-27zm-27-495h27v27h-27zm-450 18h-27v-27h27zm477 9h27v27h-27zm-54 495h27v27h-27zm-423 0h27v27h-27zm-54-504h27v27h-27z" fill="#666"/><path d="M67.6 730v27h-27v-27zm54 54v27h-27v-27zm0-108v27h27v-27zm-27 27v27h27v-27zm-81 0v27h27v-27zm585 27v27h-27v-27zm-108-54v27h27v-27zm27 27v27h27v-27zm81 0v27h27v-27zm-54-495h27v27h-27zm-54 108h27v-27h-27zm27-27h27v-27h-27zm0-81h27v-27h-27zm-423 18h-27v-27h27zm54 54h-27v27h27zm-27-27h-27v27h27zm0-81h-27v27h27zm423 612v27h-27v-27zm81-522v27h-27v-27zm-585-9v27h-27v-27z" fill="#999"/><path d="M94.6 784v27h-27v-27zm-27-27v27h27v-27zm-27-54v27h27v-27zm27 0v27h27v-27zm0-27v27h27v-27zm27 0v27h27v-27zm0-27v27h27v-27zm27 0v27h27v-27zm-108 81v27h27v-27zm558 54v27h-27v-27zm-27-27v27h27v-27zm27-54v27h27v-27zm-27 0v27h27v-27zm0-27v27h27v-27zm-27 0v27h27v-27zm0-27v27h27v-27zm-27 0v27h27v-27zm108 81v27h27v-27zm0-495h27v27h-27zm-27 27h27v-27h-27zm-54-27h27v-27h-27zm0 27h27v-27h-27zm-27 0h27v-27h-27zm0 27h27v-27h-27zm-27 0h27v-27h-27zm0 27h27v-27h-27zm81-108h27v-27h-27zm-504 45h-27v-27h27zm27-27h-27v27h27zm54-27h-27v27h27zm0 27h-27v27h27zm27 0h-27v27h27zm0 27h-27v27h27zm27 0h-27v27h27zm0 27h-27v27h27zm-81-108h-27v27h27z" fill="#ccc"/><path d="M598.6 665.1H41.5C-76.5 667 176 280.2 176 280.2h53a46.5 46.5 0 0162.8-56.3 29.2 29.2 0 1128.5 35.9h-1a46.5 46.5 0 01-1.5 20.3l142.5-.1s255.3 387 138.3 385.1zM291 181a29.3 29.3 0 10-29.2-29.3A29.3 29.3 0 00291 181zm65.4-66.8a22.4 22.4 0 10-22.5-22.4 22.4 22.4 0 0022.5 22.4z" fill="#fc0"/><path d="M245.5 172V10h153v162s324 495 198 495h-558c-126 0 207-495 207-495zm126 54h56m-13 72h56m-9 72h56m-20 72h56m-22 72h56m-29 72h56m-457-45c20.8 41.7 87.3 81 160.7 81 72.1 0 142.1-38.2 163.4-81" fill="none" stroke="#000" stroke-miterlimit="10" stroke-width="20"/><path d="M273.3 421.7c0 31-9.8 56.3-21.9 56.3s-21.8-25.2-21.8-56.3 9.8-56.3 21.8-56.3 21.9 25.2 21.9 56.3zm114.4-56.3c-12 0-21.8 25.2-21.8 56.3s9.7 56.3 21.8 56.3 21.9-25.2 21.9-56.3-9.8-56.3-21.9-56.3zM150.1 526.6c-18.2 6.7-27.5 22.9-23.2 30.2s14.8-5.5 33-12.2 37.4-4.9 33-12.2-24.5-12.6-42.8-5.8zm296 5.8c-4.2 7.3 14.9 5.5 33.1 12.2s28.7 19.5 33 12.2-5-23.5-23.2-30.2-38.5-1.5-42.8 5.8z"/>
</symbol>
<!-- arXivLabs small -->
<symbol xmlns="http://www.w3.org/2000/svg" viewBox="0 0 200.8 254.5" id="arxiv-labs-small">
  <path data-name="grey bones" d="M46.4 200.5h9v9h-9v9h-9v9h-9v18h-9v-9h-18v-18h18v-9h9v-9h18zm0-135h-9v-18h-18v18h-18v9h36v9h9v9h9v-18h-9zm144 0h-9v-18h-18v18h-9v9h-9v18h9v-9h9v-9h36v-9zm-9 153v-9h-9v-9h-27v9h9v9h9v9h9v18h9v-9h18v-18h-18z" fill="#999"/><path data-name="black bones" d="M73.4 200.5v9h-9v9h-9v9h-9v9h-9v18h-18v-9h9v-18h9v-9h9v-9h9v-9zm90 18h-9v-9h-9v-9h-9v18h9v9h9v9h9v18h18v-9h-9v-18h-9zm-117-126v-9h-9v-9h-36v9h18v9h9v9h9v9h9v-9h9v-9zm144-18h-27v9h-9v9h-9v9h9v9h9v-9h9v-9h9v-9h18v-9zm-18 175.6"/><path data-name="beaker yellow" d="M190.4 209.5h-180c-36-9 46.4-126.2 46.4-126.2h16a13.7 13.7 0 01-.6-4 14 14 0 0114-14 14.1 14.1 0 015.6 1.2 8.8 8.8 0 118.6 10.7h-.3a13.7 13.7 0 01-.5 6h43s83.8 117.3 47.8 126.3zM91.6 53.8a8.7 8.7 0 10-8.9-8.8 8.8 8.8 0 008.9 8.8zm19.7-20a6.7 6.7 0 10-6.8-6.6 6.7 6.7 0 006.8 6.7z" fill="#ffe600"/><path data-name="beaker and face outlines" d="M73.4 56.5v-54h54v54s99 144 63 153h-180c-36-9 63-153 63-153zm99 126h22.4M53 169.8c6.5 13 24.2 21.7 47.3 21.7 22.6 0 41-7.9 47.6-21.3m13.2-14.7h22.4m-35.5-27h22.3m-38-27h22.4m-38.6-27h22.4" fill="none" stroke="#000" stroke-miterlimit="10" stroke-width="5"/><path data-name="face shapes" d="M86.4 136.3c0 9.2-3 16.7-6.5 16.7s-6.5-7.5-6.5-16.7 2.9-16.8 6.5-16.8 6.5 7.5 6.5 16.8zm34.5-16.8c-3.6 0-6.5 7.5-6.5 16.8s2.9 16.7 6.5 16.7 6.5-7.5 6.5-16.7-3-16.8-6.5-16.8zm-69.5 46c-5.4 2-8.2 6.7-6.9 9s4.4-1.7 9.9-3.7 11-1.4 9.8-3.6-7.3-3.8-12.8-1.8zm85.2 1.7c-1.3 2.2 4.4 1.6 9.8 3.6s8.6 5.8 9.8 3.6-1.4-7-6.9-9-11.5-.4-12.7 1.8z"/>
</symbol>
<!-- PDF file outline icon -->
<symbol xmlns="http://www.w3.org/2000/svg" viewBox="0 0 384 512" id="pdf-file">
  <path d="M369.9 97.9L286 14C277 5 264.8-.1 252.1-.1H48C21.5 0 0 21.5 0 48v416c0 26.5 21.5 48 48 48h288c26.5 0 48-21.5 48-48V131.9c0-12.7-5.1-25-14.1-34zM332.1 128H256V51.9l76.1 76.1zM48 464V48h160v104c0 13.3 10.7 24 24 24h104v288H48zm250.2-143.7c-12.2-12-47-8.7-64.4-6.5-17.2-10.5-28.7-25-36.8-46.3 3.9-16.1 10.1-40.6 5.4-56-4.2-26.2-37.8-23.6-42.6-5.9-4.4 16.1-.4 38.5 7 67.1-10 23.9-24.9 56-35.4 74.4-20 10.3-47 26.2-51 46.2-3.3 15.8 26 55.2 76.1-31.2 22.4-7.4 46.8-16.5 68.4-20.1 18.9 10.2 41 17 55.8 17 25.5 0 28-28.2 17.5-38.7zm-198.1 77.8c5.1-13.7 24.5-29.5 30.4-35-19 30.3-30.4 35.7-30.4 35zm81.6-190.6c7.4 0 6.7 32.1 1.8 40.8-4.4-13.9-4.3-40.8-1.8-40.8zm-24.4 136.6c9.7-16.9 18-37 24.7-54.7 8.3 15.1 18.9 27.2 30.1 35.5-20.8 4.3-38.9 13.1-54.8 19.2zm131.6-5s-5 6-37.3-7.8c35.1-2.6 40.9 5.4 37.3 7.8z"/>
</symbol>
</svg>
