<?xml version="1.0" standalone="no"?>
<!DOCTYPE svg PUBLIC "-//W3C//DTD SVG 20010904//EN"
 "http://www.w3.org/TR/2001/REC-SVG-20010904/DTD/svg10.dtd">
<svg version="1.0" xmlns="http://www.w3.org/2000/svg"
 width="233.000000pt" height="233.000000pt" viewBox="0 0 233.000000 233.000000"
 preserveAspectRatio="xMidYMid meet">
<metadata>
Created by potrace 1.11, written by Peter Selinger 2001-2013
</metadata>
<g transform="translate(0.000000,233.000000) scale(0.100000,-0.100000)"
fill="#000000" stroke="none">
<path d="M352 2314 c-63 -26 -69 -90 -16 -159 29 -39 236 -290 308 -375 11
-14 64 -77 116 -140 52 -63 99 -120 105 -126 5 -7 17 -20 25 -31 8 -10 35 -42
59 -71 l44 -53 -45 -47 c-95 -98 -98 -102 -98 -148 0 -39 6 -49 68 -115 37
-39 66 -76 64 -81 -1 -5 -122 -151 -269 -325 -253 -300 -266 -318 -271 -363
-4 -42 -2 -49 28 -73 21 -18 43 -27 66 -27 39 0 36 -2 254 230 69 73 166 175
215 228 50 52 101 107 114 123 27 33 34 35 53 16 13 -14 223 -237 289 -308 19
-20 85 -91 147 -157 62 -66 122 -131 133 -143 57 -66 137 -144 157 -155 44
-23 114 12 127 63 7 30 -22 94 -62 138 -16 17 -53 59 -83 95 -30 36 -57 67
-60 70 -3 3 -64 75 -135 160 -71 85 -139 166 -151 180 -12 14 -65 76 -118 139
l-95 114 69 75 c39 42 71 82 71 89 1 7 2 20 2 28 0 37 -6 47 -55 101 -99 106
-95 88 -36 163 29 36 55 68 58 71 12 11 357 436 386 477 36 50 35 79 -4 118
-27 27 -55 37 -87 31 -11 -3 -23 -5 -26 -5 -5 -1 -181 -189 -353 -376 -16 -16
-64 -70 -109 -118 l-81 -89 -49 54 c-27 29 -72 78 -100 108 -29 31 -99 107
-157 169 -58 62 -116 125 -130 140 -14 15 -68 74 -120 131 -176 192 -187 200
-248 174z"/>
</g>
</svg>
