<svg version="1" xmlns="http://www.w3.org/2000/svg" width="928" height="928" viewBox="0 0 696.000000 696.000000"><path d="M605.4 4.9c-2.3 1-4.5 2.4-4.9 3-.3.6-4.6 3.8-9.3 7-15.3 10.3-18.7 15.4-19.9 28.7-.7 8.8-3.1 13.1-16.2 29.3-13 16.2-57.8 65.8-59 65.4-.4-.1-6.2-3.9-13.1-8.5-75.4-50.5-171.9-56.1-253.2-14.7-13.3 6.8-29.8 17.3-40 25.5-3.7 3-6.9 5.4-7.2 5.4-.8 0-34-37.1-37.4-41.8-2.6-3.7-3.2-5.5-3.2-9.7 0-5.5 2.9-13.8 8-22.9 12.8-22.9 11.2-38.1-5.7-51.5-11.6-9.3-21.5-11.3-31.1-6.5-7.3 3.6-11.2 8.7-19.2 24.9-3.8 7.7-8 15.3-9.2 16.8l-2.3 2.8-5.6-1.5c-6.8-1.7-11.2-1-20.2 3.5-8.4 4.3-41.4 27.7-44.2 31.4-4.9 6.4-5 13.7-.4 23 2.9 6 30.5 34.7 36.1 37.6 5.3 2.7 7.3 2.4 15.2-2.4 7-4.1 7.2-4.2 16.1-4.1 14.1.1 14.6.5 39.5 24.5l21.9 21.1-6.8 10.3c-23.5 35.6-37.7 78.8-40 122.2-3 55.8 11.4 108.2 42.5 154.5l9.2 13.8-27.9 27.2c-31.9 31.2-31.8 31.1-46.4 31.2-8.9.1-9.1 0-16.1-4.1-7.9-4.8-9.9-5.1-15.2-2.4-5.6 2.9-33.4 31.6-36.1 37.4-4.7 9.8-4.6 16.7.4 23.2 2.8 3.7 35.8 27.1 44.2 31.4 9 4.5 13.4 5.2 20.2 3.5l5.6-1.5 2.3 2.8c1.2 1.5 5.4 9.1 9.2 16.8 3.8 7.8 8.5 15.9 10.5 18.2 4.7 5.5 12.4 9.3 18.9 9.3 13.3 0 31.9-15.3 34.6-28.5 1.9-9.1-.3-17-9.9-36-8.2-16.2-8.4-21.3-1.1-31 4.6-6 25.3-28.9 39.6-43.7l10.4-10.7 10.8 7.6c28.7 20.1 60.3 33.9 93.5 40.7 30.5 6.3 70.9 6.3 101.4 0 29-6 60.5-18.9 85.1-35l9.9-6.4 7.5 7.7c34.9 36.4 68.2 74.6 77.5 89 3.5 5.3 4.1 7.1 4.6 13.7 1.1 13.1 4.7 18.5 18.7 27.8 4.1 2.8 8.6 6.1 10 7.4 3.9 3.6 9.8 5.7 13.9 4.9 7.8-1.5 18.1-9.3 25.6-19.5 4.4-6.1 12.7-22.6 12.3-24.7-.4-2.2 7.6-4.7 19.3-6.1 7.4-.9 8.7-1.4 11.1-4.1 3.9-4.4 5.1-10.1 4.4-20.5-.7-10.2-5-30.5-7.5-35.6-1.2-2.4-3.3-4.3-6.7-6-4.2-2.1-6.1-2.4-13.9-2.3-4.9.1-14.2 1.1-20.5 2.2-24.5 4.5-25.6 4.5-31.4 1.7-8.9-4.4-27.9-17.6-34.4-23.9-3.5-3.4-15.8-16-27.4-27.9l-21-21.7 6.2-7.6c21.4-26.1 38.6-59.5 47.5-92.2 6.3-23 8.5-39.8 8.5-66.3s-2.2-43.3-8.5-66.3c-8.4-30.7-23-60.1-42.6-85.9l-5.8-7.7 19.9-20.4c17-17.5 21.6-21.5 31.7-28.2 6.5-4.4 14.3-9.2 17.4-10.8 6.3-3.2 6.8-3.2 31.9 1.4 21.8 3.9 35.3 2.5 40-4.2 2.7-3.7 7.8-26 8.6-37.4.7-10.5-.5-16.2-4.4-20.6-2.4-2.7-3.7-3.2-11.1-4.1-11.8-1.4-19.7-3.9-19.3-6.2.4-2.1-7.8-18.4-12.3-24.6-4.6-6.3-13.3-14.4-18.2-16.9-6.2-3.1-11.1-3.5-15.9-1.2zM369.5 110.5c28.9 3.4 49.2 9.4 75.2 22 45.9 22.4 82.3 58.8 104.8 105 11.7 23.9 17.2 41.6 21.6 70 1.7 10.5 1.7 50.5 0 61-4.4 28.4-9.9 46.1-21.6 70-33 67.7-95.2 113.5-171.5 126.2-14.8 2.4-53.2 2.4-68 0-24.8-4.2-46-10.9-67-21.3-46.4-23.1-82.1-58.9-104.5-104.9-18-36.9-25.7-76.1-22.7-116.7 2.2-30.5 9.3-57.1 22.7-84.3 11.6-23.8 24.2-41.5 42.8-60.3 37.5-38 84.4-60.6 139.2-67.1 11.5-1.4 36.2-1.2 49 .4z"/><path d="M274 214.1c-7.9 3.2-14.3 16.3-17.5 35.9-5.8 36.5 7.4 76.8 23.9 72.6 14.3-3.6 24.1-40.5 19.1-72.1-3-19.2-8.9-32-16.7-36.1-3.1-1.6-5.3-1.7-8.8-.3zM410 214.1c-8 3.2-14.2 16.1-17.5 36.4-5.1 31.1 4.8 68.5 19.1 72.1 6.2 1.6 12.6-3.4 17.2-13.3 10.8-23.6 10.9-59.1.1-82.3-3.5-7.6-6.2-10.7-10.6-12.6-3.7-1.6-4.9-1.6-8.3-.3zM220.8 357.6c-2.7 1.3-4.8 2.9-4.8 3.5 0 .5 1 2.9 2.2 5.2 1.7 3.2 2.2 6 2.2 11.7.1 6.4-.3 8.2-2.6 12.1-4 6.8-8 8.2-25 8.7l-13.8.4v14.1l14.8-.6c9.8-.3 16.2-1.1 19.2-2.2 2.5-.8 4.6-1.2 4.8-.7 1.2 3.6 10 17.3 15.1 23.4 12.2 14.9 31.1 28.3 50.3 35.9 7 2.7 22.4 6.5 33.3 8 13.3 1.9 51.2 1.6 65-.5 13.8-2.1 25.5-4.8 32.4-7.6 14.3-5.6 30.8-21.2 50.8-47.8 4.8-6.4 8.8-11.9 9-12.1.1-.2 2.4.4 5 1.4 3.3 1.1 9.6 1.8 19.6 2.2l14.7.6v-14.1l-13.7-.4c-17.1-.5-21.1-1.9-25.1-8.7-2.3-3.9-2.7-5.7-2.6-12.1 0-5.7.5-8.5 2.2-11.7 1.2-2.3 2.2-4.7 2.2-5.3 0-.5-2.5-2.3-5.6-3.8-5.5-2.6-5.6-2.7-7-.8-2.6 3.6-5.6 13.1-6.1 19.6-.4 5.2-.1 7.9 1.9 13.7 1.3 4 2.1 7.4 1.8 7.5-.4.2-4.2 5-8.5 10.8-14.7 19.7-27.4 33.3-38.3 40.9-9.9 6.9-38.6 12.1-66.7 12.1-26.2 0-48.9-4.1-64.3-11.5-22.3-10.7-38.2-25.7-48.2-45.3-1.7-3.3-3.5-6.2-4-6.4-.6-.2-.1-2.6 1-5.6 3-7.8 3.5-15.6 1.6-23s-5.2-14.2-6.9-14.2c-.6.1-3.3 1.2-5.9 2.6z"/></svg>