<svg xmlns="http://www.w3.org/2000/svg" viewBox="0 0 612.02 639"><title>smileybones-error-yellow</title><path d="M324,621v27H297V621Zm-54,27v27h27V648Zm-27,27v27h27V675Zm396-54v27H612V621Zm0,27v27h27V648Zm27,27v27h27V675ZM639,261h27v27H639Zm27,0h27V234H666Zm27-27h27V207H693ZM297,279H270V252h27Zm-27-54H243v27h27Zm-27-27H216v27h27Z" transform="translate(-162 -117)"/><path d="M243,675v27H216V675Zm477,0v27H693V675ZM693,180h27v27H693ZM243,198H216V171h27Zm477,9h27v27H720ZM666,702h27v27H666Zm-423,0h27v27H243ZM189,198h27v27H189Z" transform="translate(-162 -117)" style="fill:#666"/><path d="M216,675v27H189V675Zm54,54v27H243V729Zm0-108v27h27V621Zm-27,27v27h27V648Zm-81,0v27h27V648Zm585,27v27H720V675ZM639,621v27h27V621Zm27,27v27h27V648Zm81,0v27h27V648ZM693,153h27v27H693ZM639,261h27V234H639Zm27-27h27V207H666Zm0-81h27V126H666ZM243,171H216V144h27Zm54,54H270v27h27Zm-27-27H243v27h27Zm0-81H243v27h27ZM693,729v27H666V729Zm81-522v27H747V207Zm-585-9v27H162V198Z" transform="translate(-162 -117)" style="fill:#999"/><path d="M243,729v27H216V729Zm-27-27v27h27V702Zm-27-54v27h27V648Zm27,0v27h27V648Zm0-27v27h27V621Zm27,0v27h27V621Zm0-27v27h27V594Zm27,0v27h27V594ZM162,675v27h27V675Zm558,54v27H693V729Zm-27-27v27h27V702Zm27-54v27h27V648Zm-27,0v27h27V648Zm0-27v27h27V621Zm-27,0v27h27V621Zm0-27v27h27V594Zm-27,0v27h27V594Zm108,81v27h27V675Zm0-495h27v27H747Zm-27,27h27V180H720Zm-54-27h27V153H666Zm0,27h27V180H666Zm-27,0h27V180H639Zm0,27h27V207H639Zm-27,0h27V207H612Zm0,27h27V234H612Zm81-108h27V126H693ZM189,198H162V171h27Zm27-27H189v27h27Zm54-27H243v27h27Zm0,27H243v27h27Zm27,0H270v27h27Zm0,27H270v27h27Zm27,0H297v27h27Zm0,27H297v27h27ZM243,117H216v27h27Z" transform="translate(-162 -117)" style="fill:#ccc"/><circle cx="306" cy="324" r="252" style="fill:#fcff2a"/><circle cx="306" cy="324" r="252" style="fill:none;stroke:#000;stroke-miterlimit:10;stroke-width:20px"/><path d="M421.83,375c0,31.1-9.78,56.31-21.85,56.31S378.12,406.09,378.12,375s9.79-56.3,21.86-56.3S421.83,343.9,421.83,375Zm117.36-56.3c-12.07,0-21.86,25.21-21.86,56.3s9.79,56.31,21.86,56.31S561,406.09,561,375,551.26,318.69,539.19,318.69Z" transform="translate(-162 -117)"/><path d="M315.51,568.16c20.15-26.54,44.9-24.53,64.16-7.48s33.28,19.42,57.16,0C456.67,544.54,487,547.47,501,560" transform="translate(-162 -117)" style="fill:none;stroke:#000;stroke-miterlimit:10;stroke-width:25px"/><path d="M620.49,568.46c-16.44-23.76-40.7-28.32-61.56-7.78S520.24,577,501,560" transform="translate(-162 -117)" style="fill:none;stroke:#000;stroke-miterlimit:10;stroke-width:25px"/></svg>