<svg data-name="smileybones standard small" xmlns="http://www.w3.org/2000/svg" viewBox="0 0 612 639"><path fill="#999" d="M135 54h-27V0H54v54H0v27h81v27h27v27h54V81h-27V54zM585 54h-27V0h-54v54h-27v27h-27v54h54v-27h27V81h81V54h-27zM81 477v27H54v27H0v54h54v54h27v-81h27v-27h27v-54H81zM558 531v-27h-27v-27h-54v54h27v27h27v81h27v-54h54v-54h-54z"/><path d="M108 135h27v27h-27zM81 108h27v27H81zM81 81H0v27h81V81zM477 135h27v27h-27zM504 108h27v27h-27zM585 81h-54v27h81V81h-27zM135 504h27v27h-27zM108 531h27v27h-27zM81 585v54h27v-81H81v27zM450 504h27v27h-27zM477 531h27v27h-27zM504 585v54h27v-81h-27v27z"/><circle cx="306" cy="324" r="252" fill="#ffe000"/><circle cx="306" cy="324" r="252" fill="none" stroke="#000" stroke-miterlimit="10" stroke-width="20"/><path d="M465.6 389.1c-21.2 42.9-86.8 78.6-158.9 78.6-74 0-137.7-34.7-159-77.6" fill="none" stroke="#000" stroke-miterlimit="10" stroke-width="15"/><path d="M259.8 258c0 31-9.8 56.3-21.8 56.3S216 289.1 216 258s9.8-56.3 21.9-56.3 21.8 25.2 21.8 56.3zm117.4-56.3c-12 0-21.9 25.2-21.9 56.3s9.8 56.3 21.9 56.3S399 289.1 399 258s-9.7-56.3-21.8-56.3zM138.6 375.2c-18.3 6.7-27.6 22.9-23.3 30.2s14.8-5.4 33-12.2 37.4-4.8 33-12.2-24.5-12.6-42.7-5.8zm293.3 5.8c-4.3 7.4 14.8 5.5 33 12.2s28.8 19.6 33 12.2-5-23.5-23.2-30.2-38.5-1.5-42.8 5.8z"/></svg>