<?xml version="1.0" encoding="utf-8"?>
<!-- Generator: Adobe Illustrator 21.1.0, SVG Export Plug-In . SVG Version: 6.00 Build 0)  -->
<svg version="1.1" id="Layer_1" xmlns="http://www.w3.org/2000/svg" xmlns:xlink="http://www.w3.org/1999/xlink" x="0px" y="0px"
	 viewBox="0 0 286.1 45.9" style="enable-background:new 0 0 286.1 45.9;" preserveAspectRatio="xMidYMid meet" xml:space="preserve" aria-labelledby="cultitle">
<style type="text/css">
	.st0{fill:#FFFFFF;}
	.st1{fill:#FFFFFF;stroke:#000000;stroke-width:0.1561;}
	.st2{fill:#FFFFFF;stroke:#000000;}
</style>
<title id="cultitle">Cornell University Library</title>
<g id="Layer_2">
</g>
<g id="Layer_1_1_">
	<path class="st0" d="M22.9,45.9C10.2,45.9,0,35.5,0,22.9S10.2,0,22.9,0s22.9,10.2,22.9,22.9C45.7,35.5,35.5,45.9,22.9,45.9z
		 M22.9,2.5c-11.2,0-20.4,9.1-20.4,20.4s9.1,20.4,20.4,20.4s20.4-9.1,20.4-20.4C43.2,11.6,34.1,2.5,22.9,2.5z"/>
	<path class="st1" d="M17.5,25.4"/>
	<path class="st0" d="M22.9,43.1L22.5,43C22,42.7,9,37.1,9,26.7V8.3h27.7V27c0,9.9-12.9,15.6-13.5,15.9L22.9,43.1z M11,10.1v16.6
		c0,8.2,9.9,13.4,12,14.4c2-1,12-6.3,12-14V10.2H11C11,10.2,11,10.1,11,10.1z"/>
	<path class="st0" d="M17,19.1L16.8,19c0,0-1.5-0.9-2.4-1.5c-0.8-0.5-1.1-1.1-1.3-1.6c0-0.1,0-1.6,0-4.6v-0.6H21v0.6
		c0,3,0,4.5,0,4.6c0,0.6-0.4,1.1-1.1,1.6c-1,0.6-2.4,1.5-2.5,1.5L17,19.1z M14.2,11.7c0,1.6,0,3.8,0,4c0,0.1,0.2,0.5,0.6,0.8
		c0.6,0.4,1.5,1,2,1.3c0.5-0.2,1.5-0.9,2.1-1.3c0.2-0.1,0.6-0.4,0.6-0.6c0-0.2,0-2.2,0-4h-5.4L14.2,11.7L14.2,11.7z"/>
	<path class="st0" d="M29.2,19.1L29,19c0,0-1.5-0.9-2.4-1.5c-0.8-0.5-1.1-1.1-1.3-1.6c0-0.1,0-1.6,0-4.6v-0.6h7.9v0.6
		c0,3,0,4.5,0,4.6c0,0.6-0.4,1.1-1.1,1.6c-1,0.6-2.4,1.5-2.5,1.5L29.2,19.1z M26.5,11.7c0,1.6,0,3.8,0,4c0,0.1,0.2,0.5,0.6,0.8
		c0.6,0.4,1.5,1,2,1.3c0.5-0.2,1.5-0.9,2.1-1.3c0.2-0.1,0.6-0.4,0.6-0.6c0-0.2,0-2.2,0-4h-5.4L26.5,11.7L26.5,11.7z"/>
	<rect x="9.5" y="19.5" class="st0" width="27" height="1.6"/>
	<g>
		<g>
			<path class="st0" d="M22.9,35.9c-0.5,0-0.8-0.4-0.9-0.5c-0.1-0.1-0.2-0.2-0.4-0.2c-0.8,0-1.3,0-1.9,0.1c-0.6,0-1.3,0.1-2.2,0.1
				c-1,0-1.7,0-1.7,0H15V22.7h0.8c0.5,0,1.1,0,2.1,0c0.5,0,1-0.1,1.6-0.1c0.4,0,0.8-0.1,1.1-0.1c0.9-0.1,1.6,0.1,1.7,0.1
				c0.2,0,0.4,0.1,0.6,0.2c0.1-0.1,0.4-0.1,0.6-0.2c0,0,0.9-0.1,1.7-0.1c0.4,0,0.8,0.1,1.1,0.1c0.6,0.1,1.1,0.1,1.6,0.1
				c1,0,1.6,0,2.1,0H31v12.6h-0.7c0,0-0.8,0-1.7,0c-1,0-1.6-0.1-2.2-0.1c-0.6,0-1.1-0.1-1.9-0.1c-0.2,0-0.2,0-0.4,0.2
				C23.6,35.6,23.4,35.9,22.9,35.9z M21.6,33.7c0.6,0,1.1,0.2,1.4,0.5c0.2-0.2,0.8-0.5,1.4-0.5c0.8,0,1.4,0,2,0.1
				c0.6,0,1.3,0.1,2.1,0.1c0.4,0,0.6,0,0.9,0v-9.7c-0.4,0-0.9,0-1.4,0c-0.5,0-1.1-0.1-1.7-0.1c-0.4,0-0.8-0.1-1.1-0.1
				c-0.6-0.1-1.3,0-1.3,0c-0.1,0-0.2,0.1-0.2,0.1s0,0,0.1-0.1L23,23.9L22.3,24c0,0.1,0,0.1,0.1,0.1c0,0,0,0-0.2-0.1l0,0
				c0,0-0.6-0.1-1.3,0c-0.4,0-0.8,0.1-1.1,0.1c-0.6,0.1-1.3,0.1-1.7,0.1c-0.6,0-1,0-1.4,0V34c0.2,0,0.6,0,0.9,0
				c0.9,0,1.5-0.1,2.1-0.1C20.2,33.7,20.7,33.7,21.6,33.7z"/>
		</g>
	</g>
	<rect x="13.6" y="13" class="st0" width="6.5" height="1.1"/>
	<rect x="22.2" y="19.9" class="st0" width="1.5" height="22.2"/>
	<polygon class="st0" points="32,15.5 29.1,13.6 26.5,15.5 25.7,14.6 29.1,12.2 32.6,14.6 	"/>
	<path class="st2" d="M29,15.6"/>
	<rect x="17.5" y="25.6" class="st0" width="3.2" height="1.1"/>
	<rect x="17.5" y="28.2" class="st0" width="3.2" height="1.1"/>
	<rect x="17.5" y="30.9" class="st0" width="3.2" height="1.1"/>
	<rect x="24.7" y="25.6" class="st0" width="3.2" height="1.1"/>
	<rect x="24.7" y="28.2" class="st0" width="3.2" height="1.1"/>
	<rect x="24.7" y="30.9" class="st0" width="3.2" height="1.1"/>
</g>
<g>
	<path class="st0" d="M55.9,17.7c1.1-1.1,2.5-1.7,4.2-1.7c2.3,0,4,0.8,5,2.3c0.6,0.9,0.9,1.7,0.9,2.6h-2.9c-0.2-0.7-0.4-1.2-0.7-1.5
		c-0.5-0.6-1.3-0.9-2.3-0.9c-1,0-1.8,0.4-2.4,1.3c-0.6,0.8-0.9,2-0.9,3.6c0,1.5,0.3,2.7,0.9,3.5c0.6,0.8,1.4,1.2,2.4,1.2
		c1,0,1.7-0.3,2.3-1c0.3-0.4,0.5-0.9,0.7-1.6h2.9c-0.2,1.5-0.9,2.7-1.9,3.7c-1,0.9-2.3,1.4-3.9,1.4c-2,0-3.5-0.6-4.6-1.9
		c-1.1-1.3-1.7-3-1.7-5.2C54,20.8,54.7,19,55.9,17.7z"/>
	<path class="st0" d="M76.7,28.7c-0.9,1.1-2.2,1.6-3.9,1.6c-1.7,0-3-0.5-3.9-1.6c-0.9-1.1-1.3-2.3-1.3-3.8c0-1.5,0.4-2.7,1.3-3.8
		c0.9-1.1,2.2-1.6,3.9-1.6c1.7,0,3,0.5,3.9,1.6c0.9,1.1,1.3,2.3,1.3,3.8C77.9,26.4,77.5,27.7,76.7,28.7z M74.5,27.2
		c0.4-0.6,0.6-1.3,0.6-2.4c0-1-0.2-1.8-0.6-2.3c-0.4-0.5-1-0.8-1.8-0.8c-0.8,0-1.4,0.3-1.8,0.8c-0.4,0.5-0.6,1.3-0.6,2.3
		c0,1,0.2,1.8,0.6,2.4c0.4,0.6,1,0.8,1.8,0.8C73.5,28.1,74.1,27.8,74.5,27.2z"/>
	<path class="st0" d="M85.5,19.6c0,0,0.1,0,0.2,0v2.7c-0.2,0-0.3,0-0.4,0c-0.1,0-0.2,0-0.3,0c-1.1,0-1.8,0.3-2.2,1
		c-0.2,0.4-0.3,1-0.3,1.8V30h-2.7V19.8h2.5v1.8c0.4-0.7,0.8-1.1,1.1-1.4c0.5-0.4,1.1-0.6,1.9-0.6C85.4,19.6,85.4,19.6,85.5,19.6z"/>
	<path class="st0" d="M95.5,20.4c0.7,0.5,1,1.5,1,2.7V30h-2.7v-6.2c0-0.5-0.1-0.9-0.2-1.2c-0.3-0.5-0.8-0.8-1.5-0.8
		c-0.9,0-1.5,0.4-1.8,1.1c-0.2,0.4-0.3,0.9-0.3,1.5V30h-2.7V19.8h2.6v1.5c0.3-0.5,0.7-0.9,1-1.1c0.5-0.4,1.2-0.6,2.1-0.6
		C93.9,19.6,94.8,19.8,95.5,20.4z"/>
	<path class="st0" d="M105.5,20c0.7,0.3,1.3,0.8,1.8,1.5c0.4,0.6,0.7,1.3,0.8,2.1c0.1,0.5,0.1,1.1,0.1,2h-7.4c0,1,0.4,1.7,1.1,2.1
		c0.4,0.3,0.9,0.4,1.5,0.4c0.6,0,1.1-0.2,1.5-0.5c0.2-0.2,0.4-0.4,0.5-0.7h2.7c-0.1,0.6-0.4,1.2-1,1.8c-0.9,1-2.2,1.5-3.8,1.5
		c-1.4,0-2.5-0.4-3.6-1.2c-1-0.8-1.5-2.2-1.5-4.1c0-1.8,0.5-3.1,1.4-4c0.9-0.9,2.1-1.4,3.6-1.4C104,19.5,104.8,19.7,105.5,20z
		 M101.6,22.3c-0.4,0.4-0.6,0.9-0.7,1.6h4.6c0-0.7-0.3-1.2-0.7-1.6c-0.4-0.4-0.9-0.5-1.6-0.5C102.5,21.7,101.9,21.9,101.6,22.3z"/>
	<path class="st0" d="M112.2,30h-2.7V16.2h2.7V30z"/>
	<path class="st0" d="M117.5,30h-2.7V16.2h2.7V30z"/>
	<path class="st0" d="M125.6,16.2h2.9v8.4c0,0.9,0.1,1.6,0.3,2.1c0.3,0.8,1.1,1.2,2.3,1.2c1.2,0,1.9-0.4,2.3-1.2
		c0.2-0.4,0.3-1.1,0.3-2.1v-8.4h2.9v8.4c0,1.5-0.2,2.6-0.7,3.4c-0.8,1.5-2.5,2.2-4.8,2.2c-2.4,0-4-0.7-4.8-2.2
		c-0.5-0.8-0.7-1.9-0.7-3.4V16.2z"/>
	<path class="st0" d="M147.4,20.4c0.7,0.5,1,1.5,1,2.7V30h-2.7v-6.2c0-0.5-0.1-0.9-0.2-1.2c-0.3-0.5-0.8-0.8-1.5-0.8
		c-0.9,0-1.5,0.4-1.8,1.1c-0.2,0.4-0.3,0.9-0.3,1.5V30h-2.7V19.8h2.6v1.5c0.3-0.5,0.7-0.9,1-1.1c0.5-0.4,1.2-0.6,2.1-0.6
		C145.9,19.6,146.7,19.8,147.4,20.4z"/>
	<path class="st0" d="M153.6,18.6h-2.7v-2.4h2.7V18.6z M150.9,19.8h2.7V30h-2.7V19.8z"/>
	<path class="st0" d="M162.4,19.8h2.9L161.6,30h-2.8l-3.6-10.2h3l2.1,7.5L162.4,19.8z"/>
	<path class="st0" d="M173.4,20c0.7,0.3,1.3,0.8,1.8,1.5c0.4,0.6,0.7,1.3,0.8,2.1c0.1,0.5,0.1,1.1,0.1,2h-7.4c0,1,0.4,1.7,1.1,2.1
		c0.4,0.3,0.9,0.4,1.5,0.4c0.6,0,1.1-0.2,1.5-0.5c0.2-0.2,0.4-0.4,0.5-0.7h2.7c-0.1,0.6-0.4,1.2-1,1.8c-0.9,1-2.2,1.5-3.8,1.5
		c-1.4,0-2.5-0.4-3.6-1.2c-1-0.8-1.5-2.2-1.5-4.1c0-1.8,0.5-3.1,1.4-4c0.9-0.9,2.1-1.4,3.6-1.4C171.9,19.5,172.7,19.7,173.4,20z
		 M169.4,22.3c-0.4,0.4-0.6,0.9-0.7,1.6h4.6c0-0.7-0.3-1.2-0.7-1.6c-0.4-0.4-0.9-0.5-1.6-0.5C170.3,21.7,169.8,21.9,169.4,22.3z"/>
	<path class="st0" d="M183,19.6c0,0,0.1,0,0.2,0v2.7c-0.2,0-0.3,0-0.4,0c-0.1,0-0.2,0-0.3,0c-1.1,0-1.8,0.3-2.2,1
		c-0.2,0.4-0.3,1-0.3,1.8V30h-2.7V19.8h2.5v1.8c0.4-0.7,0.8-1.1,1.1-1.4c0.5-0.4,1.1-0.6,1.9-0.6C182.9,19.6,183,19.6,183,19.6z"/>
	<path class="st0" d="M186.9,26.7c0.1,0.5,0.2,0.8,0.4,1c0.3,0.4,0.9,0.5,1.8,0.5c0.5,0,0.9-0.1,1.2-0.2c0.3-0.2,0.5-0.4,0.5-0.7
		c0-0.3-0.1-0.5-0.4-0.7c-0.2-0.2-1.2-0.4-2.8-0.8c-1.2-0.3-2-0.6-2.4-1.1c-0.5-0.4-0.7-1-0.7-1.8c0-0.9,0.4-1.7,1.1-2.4
		c0.7-0.7,1.8-1,3.1-1c1.3,0,2.3,0.3,3.1,0.8c0.8,0.5,1.3,1.4,1.4,2.6h-2.7c0-0.3-0.1-0.6-0.3-0.8c-0.3-0.4-0.8-0.5-1.5-0.5
		c-0.6,0-1,0.1-1.2,0.3c-0.2,0.2-0.4,0.4-0.4,0.6c0,0.3,0.1,0.5,0.4,0.7c0.3,0.1,1.2,0.4,2.8,0.7c1.1,0.2,1.9,0.6,2.4,1.1
		c0.5,0.5,0.8,1.1,0.8,1.9c0,1-0.4,1.8-1.1,2.5c-0.7,0.6-1.9,1-3.5,1c-1.6,0-2.8-0.3-3.5-1c-0.8-0.7-1.1-1.5-1.1-2.6H186.9z"/>
	<path class="st0" d="M198.1,18.6h-2.7v-2.4h2.7V18.6z M195.4,19.8h2.7V30h-2.7V19.8z"/>
	<path class="st0" d="M199.7,21.8v-1.9h1.4v-2.8h2.6v2.8h1.6v1.9h-1.6v5.4c0,0.4,0.1,0.7,0.2,0.8c0.1,0.1,0.4,0.2,1,0.2
		c0.1,0,0.2,0,0.3,0c0.1,0,0.2,0,0.3,0v2l-1.3,0c-1.3,0-2.1-0.2-2.6-0.7c-0.3-0.3-0.4-0.8-0.4-1.4v-6.3H199.7z"/>
	<path class="st0" d="M207.5,31.9l0.3,0c0.3,0,0.5,0,0.7,0c0.2,0,0.4-0.1,0.6-0.2c0.2-0.1,0.3-0.3,0.4-0.7c0.1-0.3,0.2-0.5,0.2-0.6
		L206,19.8h3l2.2,7.5l2.1-7.5h2.8l-3.5,10c-0.7,1.9-1.2,3.1-1.6,3.6c-0.4,0.5-1.2,0.7-2.3,0.7c-0.2,0-0.4,0-0.6,0
		c-0.1,0-0.4,0-0.6,0V31.9z"/>
	<path class="st0" d="M223.2,16.2h2.9v11.3h6.9V30h-9.7V16.2z"/>
	<path class="st0" d="M237.4,18.6h-2.7v-2.4h2.7V18.6z M234.7,19.8h2.7V30h-2.7V19.8z"/>
	<path class="st0" d="M248.6,21c0.8,1,1.1,2.2,1.1,3.7c0,1.6-0.4,2.9-1.1,3.9c-0.7,1-1.8,1.6-3.1,1.6c-0.8,0-1.5-0.2-2-0.5
		c-0.3-0.2-0.6-0.5-1-1V30h-2.6V16.2h2.7v4.9c0.3-0.5,0.7-0.8,1.1-1.1c0.5-0.3,1.1-0.5,1.8-0.5C246.8,19.6,247.8,20.1,248.6,21z
		 M246.4,27.2c0.4-0.6,0.6-1.3,0.6-2.2c0-0.7-0.1-1.3-0.3-1.8c-0.4-0.9-1-1.3-2-1.3c-1,0-1.6,0.4-2,1.3c-0.2,0.5-0.3,1.1-0.3,1.8
		c0,0.9,0.2,1.6,0.6,2.2c0.4,0.6,1,0.9,1.8,0.9C245.5,28,246,27.8,246.4,27.2z"/>
	<path class="st0" d="M257.2,19.6c0,0,0.1,0,0.2,0v2.7c-0.2,0-0.3,0-0.4,0c-0.1,0-0.2,0-0.3,0c-1.1,0-1.8,0.3-2.2,1
		c-0.2,0.4-0.3,1-0.3,1.8V30h-2.7V19.8h2.5v1.8c0.4-0.7,0.8-1.1,1.1-1.4c0.5-0.4,1.1-0.6,1.9-0.6C257.1,19.6,257.2,19.6,257.2,19.6z
		"/>
	<path class="st0" d="M263,23.8c0.5-0.1,0.8-0.1,1.1-0.2c0.4-0.2,0.6-0.4,0.6-0.8c0-0.4-0.1-0.7-0.4-0.9c-0.3-0.2-0.7-0.2-1.3-0.2
		c-0.6,0-1.1,0.2-1.4,0.5c-0.2,0.2-0.3,0.5-0.4,0.9h-2.6c0.1-0.9,0.3-1.6,0.7-2.2c0.7-0.9,1.9-1.3,3.6-1.3c1.1,0,2.1,0.2,3,0.7
		c0.9,0.4,1.3,1.3,1.3,2.5v4.7c0,0.3,0,0.7,0,1.2c0,0.3,0.1,0.6,0.2,0.7c0.1,0.1,0.2,0.2,0.4,0.3V30H265c-0.1-0.2-0.1-0.4-0.2-0.6
		c0-0.2-0.1-0.4-0.1-0.6c-0.4,0.4-0.8,0.7-1.3,1c-0.6,0.3-1.2,0.5-1.9,0.5c-0.9,0-1.7-0.3-2.3-0.8c-0.6-0.5-0.9-1.3-0.9-2.2
		c0-1.2,0.5-2.2,1.5-2.7c0.5-0.3,1.3-0.5,2.3-0.7L263,23.8z M264.6,25c-0.2,0.1-0.3,0.2-0.5,0.3c-0.2,0.1-0.4,0.1-0.7,0.2l-0.6,0.1
		c-0.6,0.1-1,0.2-1.2,0.4c-0.4,0.2-0.6,0.6-0.6,1.1c0,0.5,0.1,0.8,0.4,1c0.3,0.2,0.6,0.3,0.9,0.3c0.6,0,1.1-0.2,1.6-0.5
		c0.5-0.3,0.7-0.9,0.8-1.8V25z"/>
	<path class="st0" d="M275.2,19.6c0,0,0.1,0,0.2,0v2.7c-0.2,0-0.3,0-0.4,0c-0.1,0-0.2,0-0.3,0c-1.1,0-1.8,0.3-2.2,1
		c-0.2,0.4-0.3,1-0.3,1.8V30h-2.7V19.8h2.5v1.8c0.4-0.7,0.8-1.1,1.1-1.4c0.5-0.4,1.1-0.6,1.9-0.6C275.2,19.6,275.2,19.6,275.2,19.6z
		"/>
	<path class="st0" d="M277.4,31.9l0.3,0c0.3,0,0.5,0,0.7,0c0.2,0,0.4-0.1,0.6-0.2c0.2-0.1,0.3-0.3,0.4-0.7c0.1-0.3,0.2-0.5,0.2-0.6
		L276,19.8h3l2.2,7.5l2.1-7.5h2.8l-3.5,10c-0.7,1.9-1.2,3.1-1.6,3.6c-0.4,0.5-1.2,0.7-2.3,0.7c-0.2,0-0.4,0-0.6,0
		c-0.1,0-0.4,0-0.6,0V31.9z"/>
</g>
</svg>
